<svg width="241" height="92" viewBox="0 0 241 92" fill="none" xmlns="http://www.w3.org/2000/svg">
<circle cx="20" cy="46" r="16" fill="#FF5757"/>
<rect y="18.3127" width="23" height="68" rx="11.5" transform="rotate(-52.7689 0 18.3127)" fill="#91CB82"/>
<rect x="20.2634" y="91.3467" width="23" height="68" rx="11.5" transform="rotate(-135 20.2634 91.3467)" fill="#2078FB"/>
<path d="M112.404 45.86H118.704V56.3C117.264 57.332 115.608 58.124 113.736 58.676C111.864 59.228 109.992 59.504 108.12 59.504C105.48 59.504 103.104 58.952 100.992 57.848C98.88 56.72 97.224 55.16 96.024 53.168C94.824 51.176 94.224 48.92 94.224 46.4C94.224 43.88 94.824 41.624 96.024 39.632C97.224 37.64 98.892 36.092 101.028 34.988C103.164 33.86 105.576 33.296 108.264 33.296C110.616 33.296 112.728 33.692 114.6 34.484C116.472 35.276 118.032 36.416 119.28 37.904L114.744 42.008C113.04 40.136 111 39.2 108.624 39.2C106.464 39.2 104.724 39.86 103.404 41.18C102.084 42.476 101.424 44.216 101.424 46.4C101.424 47.792 101.724 49.04 102.324 50.144C102.924 51.224 103.764 52.076 104.844 52.7C105.924 53.3 107.16 53.6 108.552 53.6C109.92 53.6 111.204 53.324 112.404 52.772V45.86ZM132.691 59.324C130.603 59.324 128.719 58.892 127.039 58.028C125.359 57.164 124.039 55.964 123.079 54.428C122.143 52.892 121.675 51.152 121.675 49.208C121.675 47.288 122.143 45.56 123.079 44.024C124.039 42.488 125.347 41.3 127.003 40.46C128.683 39.596 130.579 39.164 132.691 39.164C134.803 39.164 136.699 39.596 138.379 40.46C140.059 41.3 141.367 42.488 142.303 44.024C143.239 45.536 143.707 47.264 143.707 49.208C143.707 51.152 143.239 52.892 142.303 54.428C141.367 55.964 140.059 57.164 138.379 58.028C136.699 58.892 134.803 59.324 132.691 59.324ZM132.691 53.888C133.891 53.888 134.875 53.48 135.643 52.664C136.411 51.824 136.795 50.672 136.795 49.208C136.795 47.768 136.411 46.64 135.643 45.824C134.875 45.008 133.891 44.6 132.691 44.6C131.491 44.6 130.507 45.008 129.739 45.824C128.971 46.64 128.587 47.768 128.587 49.208C128.587 50.672 128.971 51.824 129.739 52.664C130.507 53.48 131.491 53.888 132.691 53.888ZM163.04 39.452H155.3V33.8H177.872V39.452H170.168V59H163.04V39.452ZM188.027 59.324C185.939 59.324 184.055 58.892 182.375 58.028C180.695 57.164 179.375 55.964 178.415 54.428C177.479 52.892 177.011 51.152 177.011 49.208C177.011 47.288 177.479 45.56 178.415 44.024C179.375 42.488 180.683 41.3 182.339 40.46C184.019 39.596 185.915 39.164 188.027 39.164C190.139 39.164 192.035 39.596 193.715 40.46C195.395 41.3 196.703 42.488 197.639 44.024C198.575 45.536 199.043 47.264 199.043 49.208C199.043 51.152 198.575 52.892 197.639 54.428C196.703 55.964 195.395 57.164 193.715 58.028C192.035 58.892 190.139 59.324 188.027 59.324ZM188.027 53.888C189.227 53.888 190.211 53.48 190.979 52.664C191.747 51.824 192.131 50.672 192.131 49.208C192.131 47.768 191.747 46.64 190.979 45.824C190.211 45.008 189.227 44.6 188.027 44.6C186.827 44.6 185.843 45.008 185.075 45.824C184.307 46.64 183.923 47.768 183.923 49.208C183.923 50.672 184.307 51.824 185.075 52.664C185.843 53.48 186.827 53.888 188.027 53.888ZM222.732 39.488V59H216.216V56.912C215.496 57.704 214.632 58.304 213.624 58.712C212.616 59.12 211.548 59.324 210.42 59.324C207.9 59.324 205.884 58.58 204.372 57.092C202.884 55.604 202.14 53.372 202.14 50.396V39.488H208.98V49.28C208.98 50.744 209.256 51.812 209.808 52.484C210.36 53.156 211.164 53.492 212.22 53.492C213.3 53.492 214.176 53.12 214.848 52.376C215.544 51.608 215.892 50.444 215.892 48.884V39.488H222.732ZM233.653 41.828C234.349 40.94 235.249 40.28 236.353 39.848C237.481 39.392 238.765 39.164 240.205 39.164V45.32C239.581 45.248 239.065 45.212 238.657 45.212C237.193 45.212 236.041 45.608 235.201 46.4C234.385 47.192 233.977 48.404 233.977 50.036V59H227.137V39.488H233.653V41.828Z" fill="black"/>
</svg>
